<svg id="Layer_1" data-name="Layer 1" xmlns="http://www.w3.org/2000/svg" viewBox="0 0 800 800"><defs><style>.cls-1{fill:#fff;}.cls-2{fill:#cc1f36;}</style></defs><rect class="cls-1" x="0.38" width="799.62" height="799.62"/><path class="cls-2" d="M401.91,596.12c-110.15,0-199.77-89.61-199.77-199.76s89.62-199.77,199.77-199.77S601.68,286.2,601.68,396.36,512.07,596.12,401.91,596.12Zm0-388.41c-104,0-188.64,84.63-188.64,188.65S297.89,585,401.91,585s188.65-84.63,188.65-188.64S505.93,207.71,401.91,207.71Z"/><path class="cls-2" d="M307.37,159.16a11.31,11.31,0,0,0-5.07-1.11,13.71,13.71,0,0,0-5.59,1.4,14.18,14.18,0,0,0-4.88,3.63,14.34,14.34,0,0,0-2.84,5.14,16.11,16.11,0,0,0-.61,6.13A20.15,20.15,0,0,0,294,186.43a16.48,16.48,0,0,0,5,3.46,14,14,0,0,0,5.67,1.2,13.44,13.44,0,0,0,5.72-1.29,12.87,12.87,0,0,0,5-3.94,12.29,12.29,0,0,0,2.32-5.59l11.59,2.42a19.72,19.72,0,0,1-4.68,9.67,25.86,25.86,0,0,1-8.49,6.36,31.7,31.7,0,0,1-10.93,3,25.42,25.42,0,0,1-10.3-1.21,24.66,24.66,0,0,1-8.89-5.33,31.44,31.44,0,0,1-9.47-20.4,24.59,24.59,0,0,1,1.65-10.23,25.72,25.72,0,0,1,5.72-8.66,31.94,31.94,0,0,1,9.33-6.42,26.67,26.67,0,0,1,4.31-1.56,23.76,23.76,0,0,1,4.78-.81,21.06,21.06,0,0,1,5,.25A17.59,17.59,0,0,1,312.3,149Z"/><path class="cls-2" d="M328.19,163.61a29.23,29.23,0,0,1-.1-11.44,24.77,24.77,0,0,1,4.07-9.53,25.64,25.64,0,0,1,7.64-7,33.82,33.82,0,0,1,21.94-4.25,25.76,25.76,0,0,1,9.71,3.66,24.71,24.71,0,0,1,7.33,7.32,31.48,31.48,0,0,1,4.28,22.08A24.7,24.7,0,0,1,379,174a25.64,25.64,0,0,1-7.64,7,33.82,33.82,0,0,1-21.94,4.25,25.43,25.43,0,0,1-9.71-3.66,24.71,24.71,0,0,1-7.33-7.32A29.23,29.23,0,0,1,328.19,163.61Zm11.61-2.26a19,19,0,0,0,2.39,6.35,15.09,15.09,0,0,0,4.19,4.54,14.76,14.76,0,0,0,5.64,2.45,17.1,17.1,0,0,0,6.72,0,16.76,16.76,0,0,0,6.25-2.48,14.9,14.9,0,0,0,4.33-4.37,15.36,15.36,0,0,0,2.19-5.78,19.16,19.16,0,0,0-.16-6.77,19,19,0,0,0-2.38-6.31,15.39,15.39,0,0,0-4.19-4.58,14.86,14.86,0,0,0-5.65-2.44,18.25,18.25,0,0,0-13,2.51,14.86,14.86,0,0,0-4.32,4.37,15.16,15.16,0,0,0-2.19,5.82A19.13,19.13,0,0,0,339.8,161.35Z"/><path class="cls-2" d="M390.48,127.07l13,.67,11,34.5h.15l14.73-33.17,12.18.63-24,50.53-9.12-.47Z"/><path class="cls-2" d="M452.92,132.82l11.14,2.39L453.2,185.76l-11.14-2.39Z"/><path class="cls-2" d="M480.8,138.84l15.86,6.35a48.91,48.91,0,0,1,10.43,5.67,26.94,26.94,0,0,1,7.38,7.8,22,22,0,0,1,3.14,10,27,27,0,0,1-2.21,12.09,24.53,24.53,0,0,1-6.32,9.39,23.78,23.78,0,0,1-8.92,5.08,28.22,28.22,0,0,1-10.44,1.13,36.2,36.2,0,0,1-10.86-2.54l-17.29-6.93Zm-4.74,42.47,5.49,2.2a32,32,0,0,0,7.11,2,15.72,15.72,0,0,0,6.45-.29,12.89,12.89,0,0,0,5.45-3.09,17.28,17.28,0,0,0,4.07-6.35,14.39,14.39,0,0,0,1.14-6.66,13.34,13.34,0,0,0-1.83-5.73,16.86,16.86,0,0,0-4.24-4.65,25.26,25.26,0,0,0-6-3.39l-6.24-2.49Z"/><path class="cls-2" d="M172.65,403.51l1.12,13.4a23.51,23.51,0,0,1-.09,5,11.93,11.93,0,0,1-1.36,4.3,8.71,8.71,0,0,1-3,3.11,11,11,0,0,1-5,1.47,10.2,10.2,0,0,1-6.39-1.38,8.62,8.62,0,0,1-3.72-5.3l-13.88,10-.77-9.14,13.23-8.4-.32-3.77L138.68,414l-.64-7.62ZM159,412.34l.37,4.5c.06.68.14,1.41.26,2.17a7,7,0,0,0,.61,2,3.28,3.28,0,0,0,3.53,1.87,3.66,3.66,0,0,0,2.06-.72,3.57,3.57,0,0,0,1.08-1.47,5.82,5.82,0,0,0,.4-2,14.92,14.92,0,0,0,0-2.12l-.41-5Z"/><path class="cls-2" d="M177.27,442.8l5.92,22.84-6.84,1.77-4-15.43-6.27,1.63,3.78,14.58L163,470l-3.79-14.58-6.84,1.77,4.23,16.29-6.84,1.78-6.14-23.7Z"/><path class="cls-2" d="M187.34,498.59a5.59,5.59,0,0,0,.57-3,9.31,9.31,0,0,0-.71-3,8.55,8.55,0,0,0-.88-1.49,6.74,6.74,0,0,0-1.23-1.27,3.59,3.59,0,0,0-1.53-.72,3.06,3.06,0,0,0-3.44,2.28,11,11,0,0,0-.1,3.29c.12,1.25.29,2.58.48,4a16,16,0,0,1,0,4.2,9.21,9.21,0,0,1-1.44,3.89,8.79,8.79,0,0,1-4,3,11.1,11.1,0,0,1-5,1.06,10.3,10.3,0,0,1-4.46-1.21,12.52,12.52,0,0,1-3.66-3.05A19.71,19.71,0,0,1,157.65,496a15.61,15.61,0,0,1,.87-6.28l7.67,2.55a7.83,7.83,0,0,0-1,3.7,8.3,8.3,0,0,0,1.68,5.37,6.16,6.16,0,0,0,1.3,1.3,3.66,3.66,0,0,0,1.53.67,2.9,2.9,0,0,0,1.67-.23,3,3,0,0,0,1.78-2.11,11.38,11.38,0,0,0,.19-3.38c-.11-1.28-.25-2.65-.43-4.11a17.52,17.52,0,0,1,0-4.28,9.51,9.51,0,0,1,1.38-3.91,8.13,8.13,0,0,1,3.77-3,10.43,10.43,0,0,1,4.93-1,10.59,10.59,0,0,1,4.43,1.26,13,13,0,0,1,3.67,3,17.71,17.71,0,0,1,2.66,4.24,19.66,19.66,0,0,1,1.54,5.54,13.2,13.2,0,0,1-.55,5.67Z"/><path class="cls-2" d="M203.62,511.69l7.07,10.8a26.39,26.39,0,0,1,2.39,4.53,11.82,11.82,0,0,1,.88,4.44,8.64,8.64,0,0,1-1.15,4.16,11.14,11.14,0,0,1-3.71,3.69,11.91,11.91,0,0,1-4.81,2,8.32,8.32,0,0,1-4.23-.46,10.91,10.91,0,0,1-3.69-2.45,23.86,23.86,0,0,1-3.22-4l-3.07-4.68-11.32,7.42-4.2-6.41Zm-8.12,14.47,2.8,4.27a9.53,9.53,0,0,0,1.25,1.55,5.2,5.2,0,0,0,1.49,1.07,3.43,3.43,0,0,0,1.74.33,3.94,3.94,0,0,0,2-.72,3.48,3.48,0,0,0,1.45-1.69,4,4,0,0,0,.19-2,6.66,6.66,0,0,0-.7-2.1,22.25,22.25,0,0,0-1.13-2l-2.16-3.29Z"/><path class="cls-2" d="M211.49,553.87a19.61,19.61,0,0,1,6.41-4.23,16.54,16.54,0,0,1,6.86-1.2,17.14,17.14,0,0,1,6.75,1.74A22.71,22.71,0,0,1,241.93,561a17,17,0,0,1,1.49,6.81,16.48,16.48,0,0,1-1.44,6.81,19.77,19.77,0,0,1-4.47,6.25,19.51,19.51,0,0,1-6.41,4.23,16.51,16.51,0,0,1-6.86,1.2,17.14,17.14,0,0,1-6.75-1.74,22.71,22.71,0,0,1-10.42-10.81,17.31,17.31,0,0,1-1.49-6.81,16.66,16.66,0,0,1,1.45-6.81A19.73,19.73,0,0,1,211.49,553.87Zm5.52,5.72a12.63,12.63,0,0,0-2.7,3.67,10.18,10.18,0,0,0-1,4,9.93,9.93,0,0,0,.69,4.07,12.24,12.24,0,0,0,6.16,6.4,10,10,0,0,0,8.1,0,12.42,12.42,0,0,0,3.76-2.57,12.67,12.67,0,0,0,2.69-3.64,10.21,10.21,0,0,0,1-4,9.92,9.92,0,0,0-.68-4.07,11.37,11.37,0,0,0-2.49-3.78,11.12,11.12,0,0,0-3.68-2.61,9.89,9.89,0,0,0-4-.84,10.38,10.38,0,0,0-4.08.89A12.82,12.82,0,0,0,217,559.59Z"/><path class="cls-2" d="M259.62,576.61l8.6,5.85-1.37,28.26.08.06,13.58-20,6.33,4.31L267.3,623.84,259,618.21l1.38-29-.08,0-13.91,20.44-6.33-4.31Z"/><path class="cls-2" d="M312,616.37a5.42,5.42,0,0,0-1.61-2.61,8.83,8.83,0,0,0-2.53-1.74,7.76,7.76,0,0,0-1.65-.52,7,7,0,0,0-1.77-.11,3.66,3.66,0,0,0-1.61.49,2.82,2.82,0,0,0-1.13,1.33,2.77,2.77,0,0,0,.11,2.68,11.2,11.2,0,0,0,2.14,2.5c.93.84,1.94,1.72,3,2.63a15.72,15.72,0,0,1,2.85,3.09,9.13,9.13,0,0,1,1.54,3.84,8.81,8.81,0,0,1-.89,4.92,11.06,11.06,0,0,1-3,4.18,10.16,10.16,0,0,1-4.12,2.1,12.34,12.34,0,0,1-4.75.2,18.75,18.75,0,0,1-5-1.45,18.48,18.48,0,0,1-5.33-3.48,15.63,15.63,0,0,1-3.58-5.23l7.4-3.27a7.94,7.94,0,0,0,1.73,3.42,8.32,8.32,0,0,0,4.86,2.84,5.77,5.77,0,0,0,1.84.09,3.66,3.66,0,0,0,1.57-.53,2.9,2.9,0,0,0,1.09-1.29,3,3,0,0,0-.1-2.75,11,11,0,0,0-2.14-2.64c-.93-.88-1.95-1.8-3.07-2.76a17.16,17.16,0,0,1-2.89-3.15,9.52,9.52,0,0,1-1.61-3.82,8.11,8.11,0,0,1,.79-4.75,10.38,10.38,0,0,1,3-4,10.63,10.63,0,0,1,4.12-2,13,13,0,0,1,4.75-.24,17.46,17.46,0,0,1,4.81,1.36,19.26,19.26,0,0,1,4.87,3.06,13,13,0,0,1,3.4,4.57Z"/><path class="cls-2" d="M333.13,615.21,356,621.12,354.21,628l-15.44-4-1.62,6.27L351.74,634,350,640.85l-14.58-3.77-1.77,6.84,16.29,4.21L348.14,655l-23.7-6.13Z"/><path class="cls-2" d="M416.07,634.2a7.49,7.49,0,0,0-2.81-2.06,9.13,9.13,0,0,0-3.81-.66,9.72,9.72,0,0,0-4,.91,9.51,9.51,0,0,0-3.15,2.4,10.81,10.81,0,0,0-2,3.59,12.87,12.87,0,0,0-.67,4.48,12.58,12.58,0,0,0,.85,4.48,11.16,11.16,0,0,0,2.15,3.48,9.37,9.37,0,0,0,3.16,2.28,9,9,0,0,0,3.86.75,8.64,8.64,0,0,0,4.16-1.06,8.46,8.46,0,0,0,2.94-2.8l6.46,4.63a13.2,13.2,0,0,1-5.5,4.67,17.3,17.3,0,0,1-6.94,1.61,21.63,21.63,0,0,1-7.53-1.13,17.34,17.34,0,0,1-6-3.54,16.43,16.43,0,0,1-4-5.69,21.06,21.06,0,0,1-.3-15.1,16.57,16.57,0,0,1,3.79-5.84,17.07,17.07,0,0,1,5.87-3.77A21.4,21.4,0,0,1,410,624.4a19.42,19.42,0,0,1,3.08.22,16.89,16.89,0,0,1,3.15.79,14.55,14.55,0,0,1,3,1.51,11.81,11.81,0,0,1,2.6,2.36Z"/><path class="cls-2" d="M435.81,641.18a19.65,19.65,0,0,1-.23-7.68,16.45,16.45,0,0,1,2.6-6.46,17,17,0,0,1,5-4.82,22.76,22.76,0,0,1,14.67-3.17,17.4,17.4,0,0,1,6.58,2.32,16.55,16.55,0,0,1,5,4.82,19.44,19.44,0,0,1,3,7.09,19.65,19.65,0,0,1,.23,7.68,16.4,16.4,0,0,1-2.6,6.45,17,17,0,0,1-5,4.83,22.67,22.67,0,0,1-14.67,3.16,17.07,17.07,0,0,1-6.58-2.32,16.52,16.52,0,0,1-5-4.81A19.44,19.44,0,0,1,435.81,641.18Zm7.76-1.68a12.89,12.89,0,0,0,1.69,4.23,10.28,10.28,0,0,0,2.88,3,9.88,9.88,0,0,0,3.83,1.56,11.14,11.14,0,0,0,4.51-.12,11.37,11.37,0,0,0,4.17-1.75,10,10,0,0,0,2.84-3,10.22,10.22,0,0,0,1.39-3.91,13.47,13.47,0,0,0-1.89-8.75,9.91,9.91,0,0,0-6.71-4.58,11.5,11.5,0,0,0-4.51.12,11.38,11.38,0,0,0-4.17,1.76,9.89,9.89,0,0,0-4.22,6.93A12.85,12.85,0,0,0,443.57,639.5Z"/><path class="cls-2" d="M480.81,611.66l7.08-2.93,10.58,25.57,13.1-5.42,2.7,6.52-20.17,8.35Z"/><path class="cls-2" d="M511.91,597.53l6.56-3.95,14.28,23.7L544.89,610l3.65,6.06-18.7,11.26Z"/><path class="cls-2" d="M540.49,579.11l18-15.2,4.55,5.4-12.19,10.27,4.17,5,11.52-9.7,4.55,5.4-11.52,9.7,4.55,5.4L577,584.5l4.55,5.41-18.72,15.77Z"/><path class="cls-2" d="M590.39,542.13a7.45,7.45,0,0,0-3.4.76,9.4,9.4,0,0,0-3,2.44,9.5,9.5,0,0,0-2.19,7.54,10.83,10.83,0,0,0,1.36,3.9,12.82,12.82,0,0,0,2.93,3.45,12.64,12.64,0,0,0,3.93,2.31,11.09,11.09,0,0,0,4,.67,9.27,9.27,0,0,0,3.79-.88A9,9,0,0,0,601,559.9a8.61,8.61,0,0,0,1.93-3.82,8.24,8.24,0,0,0-.18-4.06l7.74-1.82a13.27,13.27,0,0,1-.1,7.21A17.43,17.43,0,0,1,607,563.7a21.22,21.22,0,0,1-5.81,4.92,17.11,17.11,0,0,1-6.61,2.2,16.52,16.52,0,0,1-6.93-.72,21.16,21.16,0,0,1-11.57-9.72,16.62,16.62,0,0,1-1.9-6.69,17.08,17.08,0,0,1,1-6.9,21.31,21.31,0,0,1,3.85-6.57,17.89,17.89,0,0,1,2.18-2.17,16.07,16.07,0,0,1,2.67-1.85,14.2,14.2,0,0,1,3.11-1.27,12.12,12.12,0,0,1,3.48-.41Z"/><path class="cls-2" d="M603.47,518.9l-5,8.54L592.61,524l13.92-23.68,5.83,3.43-5,8.54,24.11,14.16-3.88,6.6Z"/><path class="cls-2" d="M611.29,489.46l3-7,32,13.6-3,7Z"/><path class="cls-2" d="M618.9,471.93l2.24-8.44,24.2-2.46,0-.09-19.76-14.29,2.1-7.92,29.89,22.76L656,467.42Z"/><path class="cls-2" d="M629.17,427.42l2-23.52,7,.59-1.34,15.89,6.45.54,1.27-15,7,.59-1.27,15,7,.6,1.41-16.77,7,.59-2.05,24.39Z"/><path class="cls-2" d="M401.91,696.36c-165.42,0-300-134.58-300-300s134.58-300,300-300,300,134.58,300,300S567.33,696.36,401.91,696.36Zm0-588.88C242.63,107.48,113,237.07,113,396.36S242.63,685.23,401.91,685.23,690.79,555.64,690.79,396.36,561.2,107.48,401.91,107.48Z"/><path class="cls-2" d="M599.05,287l0-.05a1,1,0,0,1-.12-.54c.06-.62,1.47-15.26,5.51-22.68v0A10.52,10.52,0,0,1,623.29,273a10.53,10.53,0,0,1-1.4,21h0c-8.44-.22-21.83-6.32-22.39-6.58A.93.93,0,0,1,599.05,287Z"/><path class="cls-2" d="M401,354.39a6.05,6.05,0,0,0,6.05-6.05V316.45a6.06,6.06,0,0,0-12.11,0v31.89A6.05,6.05,0,0,0,401,354.39Z"/><path class="cls-2" d="M474.68,361l27.17-15.35a6.05,6.05,0,1,0-6-10.54l-27.16,15.35A6.05,6.05,0,1,0,474.68,361Z"/><path class="cls-2" d="M482.38,432.22l-27.16-16.53a6.05,6.05,0,0,0-6.3,10.34l27.17,16.53a6.05,6.05,0,0,0,6.29-10.34Z"/><path class="cls-2" d="M400.58,461.88a6.05,6.05,0,0,0-6.05,6.05v31.89a6.05,6.05,0,0,0,12.1,0V467.93A6.05,6.05,0,0,0,400.58,461.88Z"/><path class="cls-2" d="M343.92,415.69l-27.17,16.53a6.05,6.05,0,0,0,6.3,10.34L350.21,426a6.05,6.05,0,0,0-6.29-10.34Z"/><path class="cls-2" d="M333.6,349.33,306.43,334a6,6,0,0,0-5.95,10.53l27.16,15.36a6.05,6.05,0,1,0,6-10.54Z"/><path class="cls-2" d="M451.73,340.88a6.06,6.06,0,0,0,5.34-3.21L466.52,320a6.05,6.05,0,1,0-10.68-5.7L446.39,332A6.06,6.06,0,0,0,451.73,340.88Z"/><path class="cls-2" d="M487.2,390.3H468.31a6.06,6.06,0,0,0,0,12.11H487.2a6.06,6.06,0,1,0,0-12.11Z"/><path class="cls-2" d="M435.77,441.15a6.05,6.05,0,0,0-10.51,6l9.45,16.53a6.05,6.05,0,1,0,10.51-6Z"/><path class="cls-2" d="M373.07,439.07a6,6,0,0,0-8.36,1.82l-10.63,16.53A6.05,6.05,0,0,0,364.26,464l10.63-16.54A6,6,0,0,0,373.07,439.07Z"/><path class="cls-2" d="M314,402.41h18.89a6.06,6.06,0,1,0,0-12.11H314a6.06,6.06,0,0,0,0,12.11Z"/><path class="cls-2" d="M345,337.94a6.05,6.05,0,0,0,10.38-6.23L344.72,314a6.05,6.05,0,0,0-10.38,6.23Z"/><path class="cls-2" d="M436.11,332.4c-17.41,0-27.55,7.83-35.55,20.34-8-12.51-18.14-20.34-35.55-20.34a41.64,41.64,0,0,0-41.6,41.6c0,38.66,37.41,60.16,72.87,95.63a6.06,6.06,0,0,0,8.56,0c35.35-35.35,72.92-56.95,72.92-95.63A41.67,41.67,0,0,0,436.11,332.4ZM400.56,456.86C367.13,424.46,335.51,405,335.51,374A29.53,29.53,0,0,1,365,344.5c14,0,21.31,5.67,30.14,23.32a6.05,6.05,0,0,0,10.82,0c8.83-17.65,16.15-23.32,30.14-23.32A29.55,29.55,0,0,1,465.65,374C465.65,405,434,424.44,400.56,456.86Z"/><circle class="cls-2" cx="442.46" cy="464.56" r="10.46"/><circle class="cls-2" cx="400.58" cy="503.4" r="10.46"/><circle class="cls-2" cx="400.58" cy="310.4" r="10.46"/><circle class="cls-2" cx="462.09" cy="316.22" r="10.46"/><circle class="cls-2" cx="500.66" cy="340.88" r="10.46"/><circle class="cls-2" cx="493.01" cy="396.61" r="10.46"/><circle class="cls-2" cx="480.15" cy="439.58" r="10.46"/><circle class="cls-2" cx="337.14" cy="316.22" r="10.46"/><circle class="cls-2" cx="308.7" cy="395.09" r="10.46"/><circle class="cls-2" cx="315.52" cy="439.28" r="10.46"/><circle class="cls-2" cx="355.99" cy="464.56" r="10.46"/><circle class="cls-2" cx="302.38" cy="339.71" r="10.46"/><path class="cls-2" d="M202.87,287l0,.05a.93.93,0,0,1-.41.37c-.57.26-13.95,6.36-22.4,6.58h0a10.53,10.53,0,0,1-1.41-21,10.52,10.52,0,0,1,18.87-9.27l0,0c4,7.42,5.44,22.06,5.5,22.68A.88.88,0,0,1,202.87,287Z"/></svg>