<svg id="Layer_1" data-name="Layer 1" xmlns="http://www.w3.org/2000/svg" viewBox="0 0 800 800"><defs><style>.cls-1{fill:#fff;}.cls-2{fill:#cc1f36;}</style></defs><rect class="cls-1" x="0.38" width="799.62" height="799.62"/><path class="cls-2" d="M397.24,599.15c-109.09,0-197.83-88.75-197.83-197.83s88.74-197.83,197.83-197.83,197.83,88.74,197.83,197.83S506.32,599.15,397.24,599.15Zm0-384.65c-103,0-186.82,83.81-186.82,186.82s83.81,186.81,186.82,186.81,186.81-83.8,186.81-186.81S500.25,214.5,397.24,214.5Z"/><path class="cls-2" d="M170.2,408.4l1.11,13.27a23,23,0,0,1-.09,5,11.85,11.85,0,0,1-1.35,4.26,8.54,8.54,0,0,1-3,3.08,11,11,0,0,1-4.92,1.46,10.16,10.16,0,0,1-6.33-1.37,8.58,8.58,0,0,1-3.69-5.25l-13.74,9.93-.76-9,13.1-8.32-.32-3.73-13.69,1.15-.64-7.55Zm-13.55,8.75.37,4.45c.06.68.14,1.39.25,2.15a7.13,7.13,0,0,0,.61,2,3.65,3.65,0,0,0,1.27,1.43,3.46,3.46,0,0,0,2.23.42,3.35,3.35,0,0,0,3.11-2.16,5.82,5.82,0,0,0,.39-1.94,14.52,14.52,0,0,0,0-2.09l-.41-4.94Z"/><path class="cls-2" d="M174.77,447.31l5.87,22.62-6.77,1.76-4-15.29L163.7,458l3.74,14.44-6.77,1.76-3.75-14.44-6.77,1.76,4.18,16.13-6.77,1.75L141.48,456Z"/><path class="cls-2" d="M184.74,502.56a5.4,5.4,0,0,0,.57-3,9.12,9.12,0,0,0-.7-3,8.59,8.59,0,0,0-.87-1.47,6.44,6.44,0,0,0-1.23-1.27,3.56,3.56,0,0,0-1.51-.71,3,3,0,0,0-3.41,2.26,11.06,11.06,0,0,0-.1,3.25c.13,1.24.29,2.56.49,4a16.1,16.1,0,0,1,0,4.16,9,9,0,0,1-1.43,3.85,8.69,8.69,0,0,1-3.92,3,11.07,11.07,0,0,1-5,1.06,10.23,10.23,0,0,1-4.41-1.21,12.3,12.3,0,0,1-3.63-3,18.88,18.88,0,0,1-2.68-4.36,18.54,18.54,0,0,1-1.58-6.1,15.46,15.46,0,0,1,.85-6.22l7.6,2.52a7.9,7.9,0,0,0-1,3.66,8.26,8.26,0,0,0,.71,3.7,8.42,8.42,0,0,0,1,1.62,5.81,5.81,0,0,0,1.28,1.29,3.74,3.74,0,0,0,1.52.66,2.75,2.75,0,0,0,1.65-.23,2.9,2.9,0,0,0,1.76-2.08,10.88,10.88,0,0,0,.19-3.35c-.1-1.27-.24-2.63-.42-4.07a17.2,17.2,0,0,1,0-4.24,9.26,9.26,0,0,1,1.36-3.87,8,8,0,0,1,3.74-3,10.32,10.32,0,0,1,4.88-1,10.49,10.49,0,0,1,4.38,1.24,12.84,12.84,0,0,1,3.64,3,17.17,17.17,0,0,1,2.63,4.2,19.22,19.22,0,0,1,1.53,5.49,13.09,13.09,0,0,1-.54,5.61Z"/><path class="cls-2" d="M200.87,515.54l7,10.69a25.51,25.51,0,0,1,2.36,4.49,11.57,11.57,0,0,1,.88,4.39,8.59,8.59,0,0,1-1.14,4.12,11.13,11.13,0,0,1-3.68,3.65,11.84,11.84,0,0,1-4.76,2,8.29,8.29,0,0,1-4.19-.46,10.91,10.91,0,0,1-3.65-2.42,23.9,23.9,0,0,1-3.19-4l-3-4.63-11.21,7.34-4.16-6.34Zm-8,14.32,2.77,4.23a9.39,9.39,0,0,0,1.24,1.54,5,5,0,0,0,1.48,1.06A3.56,3.56,0,0,0,200,537a4.08,4.08,0,0,0,1.94-.72,3.4,3.4,0,0,0,1.43-1.67,4,4,0,0,0,.19-2,6.48,6.48,0,0,0-.69-2.07,22,22,0,0,0-1.13-1.94l-2.13-3.25Z"/><path class="cls-2" d="M208.67,557.31a19.56,19.56,0,0,1,6.34-4.2,16.35,16.35,0,0,1,6.79-1.18,17,17,0,0,1,6.69,1.72,22.45,22.45,0,0,1,10.32,10.7,16.91,16.91,0,0,1,1.47,6.75,16.31,16.31,0,0,1-1.43,6.74,19.26,19.26,0,0,1-4.42,6.19,19.49,19.49,0,0,1-6.35,4.2,16.49,16.49,0,0,1-6.79,1.18,17.17,17.17,0,0,1-6.68-1.72,21.09,21.09,0,0,1-6.07-4.48,20.87,20.87,0,0,1-4.25-6.23,17,17,0,0,1-1.48-6.74,16.44,16.44,0,0,1,1.43-6.74A19.29,19.29,0,0,1,208.67,557.31Zm5.46,5.66a12.71,12.71,0,0,0-2.68,3.63,10.16,10.16,0,0,0-1,4,9.77,9.77,0,0,0,.69,4,12,12,0,0,0,6.1,6.33,9.91,9.91,0,0,0,4,.83,10.16,10.16,0,0,0,4-.87,13.46,13.46,0,0,0,6.39-6.16,10.13,10.13,0,0,0,1-4,9.92,9.92,0,0,0-.68-4,12.14,12.14,0,0,0-6.1-6.33,9.94,9.94,0,0,0-4-.83,10.06,10.06,0,0,0-4,.89A12.67,12.67,0,0,0,214.13,563Z"/><path class="cls-2" d="M256.33,579.82l8.51,5.8-1.35,28,.08,0L277,593.9l6.26,4.26L263.93,626.6,255.74,621l1.36-28.69-.08-.05-13.78,20.24L237,608.26Z"/><path class="cls-2" d="M308.16,619.2a5.44,5.44,0,0,0-1.59-2.59,9,9,0,0,0-2.51-1.72,7.57,7.57,0,0,0-1.63-.51,6.56,6.56,0,0,0-1.76-.12,3.75,3.75,0,0,0-1.6.49,3,3,0,0,0-1,4,11.06,11.06,0,0,0,2.12,2.47c.92.84,1.93,1.71,3,2.61a15.94,15.94,0,0,1,2.81,3.06,9,9,0,0,1,1.54,3.81,8.74,8.74,0,0,1-.89,4.87,10.93,10.93,0,0,1-3,4.14,10,10,0,0,1-4.08,2.07,12.32,12.32,0,0,1-4.71.21,18.87,18.87,0,0,1-4.92-1.44,18.23,18.23,0,0,1-5.27-3.45,15.48,15.48,0,0,1-3.55-5.18l7.33-3.24a7.85,7.85,0,0,0,1.71,3.39,8.3,8.3,0,0,0,4.81,2.82,6.3,6.3,0,0,0,1.82.09,3.8,3.8,0,0,0,1.57-.53,2.84,2.84,0,0,0,1.07-1.28,2.93,2.93,0,0,0-.1-2.73,11,11,0,0,0-2.11-2.61c-.93-.87-1.94-1.78-3-2.72a17.26,17.26,0,0,1-2.87-3.13,9.3,9.3,0,0,1-1.59-3.79,8,8,0,0,1,.78-4.7,10.35,10.35,0,0,1,3-4,10.56,10.56,0,0,1,4.08-2,12.48,12.48,0,0,1,4.7-.23,17.15,17.15,0,0,1,4.77,1.34,19.42,19.42,0,0,1,4.83,3,13,13,0,0,1,3.36,4.51Z"/><path class="cls-2" d="M329.13,618.05l22.62,5.85L350,630.67l-15.29-3.95-1.6,6.21,14.44,3.73-1.75,6.78-14.44-3.73-1.75,6.77,16.13,4.17L344,657.42l-23.47-6.06Z"/><path class="cls-2" d="M411.26,636.85a7.39,7.39,0,0,0-2.78-2,9,9,0,0,0-3.78-.65,9.43,9.43,0,0,0-7.06,3.27,10.79,10.79,0,0,0-2,3.56,12.82,12.82,0,0,0-.66,4.43,12.52,12.52,0,0,0,.84,4.43,10.72,10.72,0,0,0,2.13,3.46,9.3,9.3,0,0,0,3.13,2.25,9.11,9.11,0,0,0,3.82.75,8.59,8.59,0,0,0,4.12-1.05,8.32,8.32,0,0,0,2.91-2.78l6.4,4.59a13,13,0,0,1-5.45,4.62,16.91,16.91,0,0,1-6.87,1.59,20.91,20.91,0,0,1-7.45-1.12,16.8,16.8,0,0,1-6-3.5,16.41,16.41,0,0,1-4-5.63,20.9,20.9,0,0,1-.29-15,16.33,16.33,0,0,1,3.75-5.78,17,17,0,0,1,5.8-3.74,21.56,21.56,0,0,1,7.41-1.41,20.1,20.1,0,0,1,3,.21,16.51,16.51,0,0,1,3.13.79,14,14,0,0,1,3,1.5A11.78,11.78,0,0,1,417,632Z"/><path class="cls-2" d="M430.8,643.77a19.47,19.47,0,0,1-.22-7.61,16.39,16.39,0,0,1,2.57-6.39,16.9,16.9,0,0,1,5-4.78,22.46,22.46,0,0,1,14.53-3.13,17.09,17.09,0,0,1,6.51,2.29,16.45,16.45,0,0,1,5,4.77,20.82,20.82,0,0,1,3.16,14.63,16.39,16.39,0,0,1-2.57,6.39,17.1,17.1,0,0,1-5,4.78,21.42,21.42,0,0,1-7,2.8,21,21,0,0,1-7.53.33,16.94,16.94,0,0,1-6.51-2.3,16.44,16.44,0,0,1-5-4.76A19.48,19.48,0,0,1,430.8,643.77Zm7.7-1.66a12.38,12.38,0,0,0,1.67,4.18,10.11,10.11,0,0,0,2.85,3,9.82,9.82,0,0,0,3.79,1.54A12.13,12.13,0,0,0,455.4,649a9.84,9.84,0,0,0,4.19-6.85,13.38,13.38,0,0,0-1.87-8.66,10.06,10.06,0,0,0-2.85-3,9.82,9.82,0,0,0-3.79-1.54,10.94,10.94,0,0,0-4.47.12,11.39,11.39,0,0,0-4.13,1.73,9.93,9.93,0,0,0-2.81,3,10,10,0,0,0-1.37,3.9A12.64,12.64,0,0,0,438.5,642.11Z"/><path class="cls-2" d="M475.37,614.53l7-2.89L492.86,637l13-5.37,2.68,6.47-20,8.27Z"/><path class="cls-2" d="M506.17,600.54l6.49-3.91L526.8,620.1l12-7.25,3.61,6L523.92,630Z"/><path class="cls-2" d="M534.47,582.3l17.87-15,4.51,5.35-12.08,10.17,4.13,4.9,11.41-9.6,4.51,5.34L553.41,593l4.51,5.36,12.74-10.74,4.51,5.35-18.54,15.62Z"/><path class="cls-2" d="M583.89,545.67a7.45,7.45,0,0,0-3.37.76,9.1,9.1,0,0,0-3,2.42,9.58,9.58,0,0,0-1.91,3.56,9.35,9.35,0,0,0-.26,3.9,10.67,10.67,0,0,0,1.35,3.87,13.39,13.39,0,0,0,6.79,5.7,11.15,11.15,0,0,0,4,.67,9.5,9.5,0,0,0,3.75-.88,8.88,8.88,0,0,0,3.08-2.39,8.47,8.47,0,0,0,1.91-3.79,8.08,8.08,0,0,0-.18-4l7.68-1.8a13.21,13.21,0,0,1-.1,7.14,17.23,17.23,0,0,1-3.33,6.22,21.34,21.34,0,0,1-5.74,4.89,17.05,17.05,0,0,1-6.56,2.17,16.63,16.63,0,0,1-6.85-.71,19.6,19.6,0,0,1-6.62-3.76,19.35,19.35,0,0,1-4.84-5.87,16.33,16.33,0,0,1-1.89-6.63,17.11,17.11,0,0,1,1-6.83,21.21,21.21,0,0,1,3.82-6.5,18.18,18.18,0,0,1,2.15-2.15,16.46,16.46,0,0,1,2.65-1.84,13.91,13.91,0,0,1,3.08-1.25,11.58,11.58,0,0,1,3.45-.4Z"/><path class="cls-2" d="M596.84,522.67l-5,8.46-5.78-3.39,13.78-23.46,5.78,3.4-5,8.46,23.88,14-3.84,6.54Z"/><path class="cls-2" d="M604.59,493.52l3-7L639.2,500l-3,7Z"/><path class="cls-2" d="M612.12,476.15l2.22-8.35,24-2.44,0-.09-19.57-14.14,2.09-7.84,29.6,22.53-1.56,5.88Z"/><path class="cls-2" d="M622.29,432.08l2-23.29,7,.59-1.32,15.73,6.39.54,1.25-14.87,7,.59-1.25,14.86,7,.59,1.4-16.61,7,.59-2,24.16Z"/><path class="cls-2" d="M397.24,698.41c-163.82,0-297.09-133.28-297.09-297.09S233.42,104.23,397.24,104.23,694.33,237.5,694.33,401.32,561.05,698.41,397.24,698.41Zm0-583.17c-157.74,0-286.08,128.34-286.08,286.08S239.5,687.39,397.24,687.39,683.31,559.06,683.31,401.32,555,115.24,397.24,115.24Z"/><path class="cls-2" d="M396.28,359.76a6,6,0,0,0,6-6V322.19a6,6,0,0,0-12,0v31.58A6,6,0,0,0,396.28,359.76Z"/><path class="cls-2" d="M469.3,366.33l26.9-15.2a6,6,0,0,0-5.9-10.44L463.4,355.9a6,6,0,1,0,5.9,10.43Z"/><path class="cls-2" d="M476.92,436.84,450,420.46a6,6,0,0,0-6.23,10.24l26.9,16.38a6,6,0,1,0,6.23-10.24Z"/><path class="cls-2" d="M395.92,466.21a6,6,0,0,0-6,6v31.58a6,6,0,0,0,12,0V472.2A6,6,0,0,0,395.92,466.21Z"/><path class="cls-2" d="M339.8,420.46l-26.9,16.38a6,6,0,0,0,6.24,10.24L346,430.7a6,6,0,0,0-6.24-10.24Z"/><path class="cls-2" d="M329.59,354.75l-26.9-15.21a6,6,0,1,0-5.9,10.44l26.9,15.2a6,6,0,0,0,5.9-10.43Z"/><path class="cls-2" d="M446.57,346.38a6,6,0,0,0,5.29-3.18l9.36-17.54A6,6,0,0,0,450.64,320l-9.35,17.54A6,6,0,0,0,446.57,346.38Z"/><path class="cls-2" d="M481.7,395.32H463a6,6,0,0,0,0,12H481.7a6,6,0,1,0,0-12Z"/><path class="cls-2" d="M430.77,445.68a6,6,0,1,0-10.41,5.95L429.71,468a6,6,0,0,0,10.41-5.94Z"/><path class="cls-2" d="M368.68,443.61a6,6,0,0,0-8.29,1.8l-10.52,16.38A6,6,0,0,0,360,468.27l10.53-16.37A6,6,0,0,0,368.68,443.61Z"/><path class="cls-2" d="M310.14,407.31h18.71a6,6,0,0,0,0-12H310.14a6,6,0,1,0,0,12Z"/><path class="cls-2" d="M340.85,343.47a6,6,0,0,0,10.28-6.17L340.6,319.75a6,6,0,0,0-10.27,6.17Z"/><path class="cls-2" d="M431.11,338c-17.24,0-27.29,7.75-35.21,20.14C388,345.73,377.93,338,360.69,338a41.25,41.25,0,0,0-41.2,41.2c0,38.29,37.05,59.57,72.17,94.7a6,6,0,0,0,8.48,0c35-35,72.21-56.4,72.21-94.7A41.27,41.27,0,0,0,431.11,338ZM395.9,461.23c-33.11-32.08-64.42-51.37-64.42-82.05A29.24,29.24,0,0,1,360.69,350c13.85,0,21.11,5.61,29.85,23.09a6,6,0,0,0,10.72,0C410,355.58,417.25,350,431.1,350a29.27,29.27,0,0,1,29.26,29.21C460.36,409.85,429,429.13,395.9,461.23Z"/><circle class="cls-2" cx="437.39" cy="468.86" r="10.36"/><circle class="cls-2" cx="395.92" cy="503.32" r="10.36"/><circle class="cls-2" cx="395.92" cy="316.2" r="10.36"/><circle class="cls-2" cx="456.83" cy="321.96" r="10.36"/><circle class="cls-2" cx="495.03" cy="346.38" r="10.36"/><circle class="cls-2" cx="487.46" cy="401.57" r="10.36"/><circle class="cls-2" cx="474.72" cy="444.13" r="10.36"/><circle class="cls-2" cx="333.09" cy="321.96" r="10.36"/><circle class="cls-2" cx="304.93" cy="400.07" r="10.36"/><circle class="cls-2" cx="311.69" cy="443.82" r="10.36"/><circle class="cls-2" cx="351.76" cy="468.86" r="10.36"/><circle class="cls-2" cx="298.67" cy="345.23" r="10.36"/><path class="cls-2" d="M190.94,321.21l0,.05a.89.89,0,0,1-.35.42c-.51.34-12.7,8.32-20.94,9.8h0a10.42,10.42,0,0,1-4.51-20.32,10.42,10.42,0,0,1,17.07-11.91l0,0c5.06,6.66,8.63,20.79,8.78,21.38A.93.93,0,0,1,190.94,321.21Z"/><path class="cls-2" d="M609.77,322.25l0-.05a.83.83,0,0,1-.07-.54c.11-.61,2.72-14.94,7.32-21.93l0,0a10.42,10.42,0,0,1,17.84,10.73A10.42,10.42,0,0,1,631.73,331h0c-8.32-.92-21-8.06-21.56-8.36A1,1,0,0,1,609.77,322.25Z"/><path class="cls-2" d="M226.09,218a7.72,7.72,0,0,0-3.52.49,9.38,9.38,0,0,0-3.26,2.22,9.72,9.72,0,0,0-2.88,7.47,11.12,11.12,0,0,0,1.06,4.08,13.76,13.76,0,0,0,6.47,6.43,11.21,11.21,0,0,0,4.06,1,9.5,9.5,0,0,0,3.92-.58,9.19,9.19,0,0,0,3.37-2.18,8.75,8.75,0,0,0,2.28-3.72,8.52,8.52,0,0,0,.17-4.14l8-1.19a13.58,13.58,0,0,1-.72,7.32,17.58,17.58,0,0,1-3.94,6.09,21.79,21.79,0,0,1-6.31,4.52,17.46,17.46,0,0,1-6.91,1.66,16.8,16.8,0,0,1-7-1.32A21.4,21.4,0,0,1,210,235.35a16.82,16.82,0,0,1-1.37-7,17.49,17.49,0,0,1,1.62-6.92,21.85,21.85,0,0,1,4.47-6.34,18.06,18.06,0,0,1,2.4-2,17.26,17.26,0,0,1,2.87-1.65,14.82,14.82,0,0,1,3.27-1,12.48,12.48,0,0,1,3.57-.12Z"/><path class="cls-2" d="M247.86,209.86a20,20,0,0,1-3.06-7.21,16.92,16.92,0,0,1,.08-7.09,17.49,17.49,0,0,1,3-6.44,23.12,23.12,0,0,1,12.77-8.44,17.59,17.59,0,0,1,7.1-.23,16.76,16.76,0,0,1,6.55,2.71,21.53,21.53,0,0,1,8.5,12.85,16.92,16.92,0,0,1-.08,7.09,17.66,17.66,0,0,1-3,6.44A23.12,23.12,0,0,1,267,218a17.59,17.59,0,0,1-7.1.23,16.91,16.91,0,0,1-6.55-2.71A19.72,19.72,0,0,1,247.86,209.86Zm6.76-4.46a12.92,12.92,0,0,0,3.17,3.39,10.47,10.47,0,0,0,3.84,1.77,10.11,10.11,0,0,0,4.21.07,12.54,12.54,0,0,0,7.55-5,10.32,10.32,0,0,0,1.59-3.9,10.62,10.62,0,0,0-.13-4.23,13.81,13.81,0,0,0-5-7.61,10.3,10.3,0,0,0-3.86-1.8,10.11,10.11,0,0,0-4.21-.07,12.54,12.54,0,0,0-7.55,5,10.32,10.32,0,0,0-1.59,3.9,10.54,10.54,0,0,0,.14,4.25A13.31,13.31,0,0,0,254.62,205.4Z"/><path class="cls-2" d="M289.27,164.17l11.09-4L315.94,179l.09,0-.22-24.52,11-4L339,183.69l-7.33,2.68-9.31-25.5-.1,0,.58,28.7-5.59,2-17.72-22.43-.09,0,9.31,25.5-7.32,2.68Z"/><path class="cls-2" d="M350.19,145.06l11.74-1.22L372.42,166h.1l5.77-23.83L390,140.93l3.65,35.21-7.75.81-2.81-27H383l-6.44,28-5.92.61L358.9,152.45h-.1l2.81,27-7.76.8Z"/><path class="cls-2" d="M440.28,166.76a17.06,17.06,0,0,1-1.62,5.64,12.62,12.62,0,0,1-3.35,4.24,12.84,12.84,0,0,1-5,2.48,19.54,19.54,0,0,1-12.86-1.52,12.52,12.52,0,0,1-6.55-8.47,17.07,17.07,0,0,1-.26-5.88l2.55-21.6,7.75.92-2.52,21.3a8.79,8.79,0,0,0,.16,3.09,7.25,7.25,0,0,0,1.18,2.58,6.73,6.73,0,0,0,2.07,1.86,7.28,7.28,0,0,0,2.79.91,7,7,0,0,0,2.9-.24,6.79,6.79,0,0,0,2.42-1.32,7.21,7.21,0,0,0,1.75-2.24,8.51,8.51,0,0,0,.88-3l2.52-21.3,7.74.92Z"/><path class="cls-2" d="M465.22,150l10,3.42,6.32,28.14.09,0,7.93-23.29,7.38,2.52-11.41,33.51-9.65-3.29-6.5-28.84-.1,0-8.12,23.86-7.39-2.52Z"/><path class="cls-2" d="M516.28,170.36l6.88,3.68-16.7,31.22-6.88-3.68Z"/><path class="cls-2" d="M542.49,194.27l-8.17-5.93,4-5.58L561,199.19l-4,5.59-8.18-5.93-16.73,23.07-6.32-4.58Z"/><path class="cls-2" d="M566.52,231.86l5.31-23.68,6.76,7-4.29,14.61,15-3.52,6.45,6.64L572,237.46,561.12,248l-5.43-5.59Z"/></svg>