<svg id="Layer_1" data-name="Layer 1" xmlns="http://www.w3.org/2000/svg" viewBox="0 0 800 800"><defs><style>.cls-1{fill:#cc1f36;}</style></defs><path class="cls-1" d="M388.26,260.8a17.51,17.51,0,0,0,17.5-17.51V151.08a17.51,17.51,0,1,0-35,0v92.21A17.51,17.51,0,0,0,388.26,260.8Z"/><path class="cls-1" d="M601.5,280l78.55-44.4a17.5,17.5,0,1,0-17.22-30.48l-78.56,44.4A17.51,17.51,0,0,0,601.5,280Z"/><path class="cls-1" d="M623.76,485.88,545.2,438.07A17.5,17.5,0,0,0,527,468l78.56,47.82a17.51,17.51,0,0,0,18.2-29.91Z"/><path class="cls-1" d="M387.2,571.65a17.51,17.51,0,0,0-17.51,17.5v92.22a17.51,17.51,0,0,0,35,0V589.15A17.51,17.51,0,0,0,387.2,571.65Z"/><path class="cls-1" d="M223.32,438.07l-78.55,47.81A17.51,17.51,0,0,0,163,515.79L241.52,468a17.5,17.5,0,1,0-18.2-29.9Z"/><path class="cls-1" d="M193.48,246.15l-78.55-44.4A17.51,17.51,0,0,0,97.7,232.23l78.56,44.4a17.5,17.5,0,0,0,17.22-30.48Z"/><path class="cls-1" d="M535.11,221.71a17.49,17.49,0,0,0,15.46-9.27l27.32-51.23A17.5,17.5,0,0,0,547,144.73L519.69,196A17.52,17.52,0,0,0,535.11,221.71Z"/><path class="cls-1" d="M637.71,364.65H583.07a17.51,17.51,0,1,0,0,35h54.64a17.51,17.51,0,1,0,0-35Z"/><path class="cls-1" d="M489,511.71a17.51,17.51,0,0,0-30.4,17.37l27.33,47.82a17.5,17.5,0,1,0,30.39-17.37Z"/><path class="cls-1" d="M307.64,505.67a17.51,17.51,0,0,0-24.19,5.26l-30.74,47.82a17.5,17.5,0,1,0,29.45,18.93l30.74-47.82A17.51,17.51,0,0,0,307.64,505.67Z"/><path class="cls-1" d="M136.69,399.66h54.64a17.51,17.51,0,1,0,0-35H136.69a17.51,17.51,0,1,0,0,35Z"/><path class="cls-1" d="M226.38,213.21a17.5,17.5,0,0,0,30-18L225.66,144a17.51,17.51,0,0,0-30,18Z"/><path class="cls-1" d="M490,197.18c-50.34,0-79.67,22.65-102.81,58.83-23.15-36.18-52.47-58.83-102.81-58.83A120.46,120.46,0,0,0,164,317.5c0,111.81,108.19,174,210.75,276.55a17.51,17.51,0,0,0,24.76,0C501.73,491.83,610.39,429.36,610.39,317.5,610.39,251.16,556.36,197.18,490,197.18ZM387.14,557.12C290.45,463.42,199,407.09,199,317.5a85.41,85.41,0,0,1,85.31-85.31c40.46,0,61.63,16.39,87.16,67.44a17.52,17.52,0,0,0,31.31,0c25.53-51,46.71-67.44,87.16-67.44a85.47,85.47,0,0,1,85.43,85.31C575.38,407.08,483.87,463.38,387.14,557.12Z"/><circle class="cls-1" cx="508.31" cy="579.39" r="30.24"/><circle class="cls-1" cx="387.2" cy="680.04" r="30.24"/><circle class="cls-1" cx="387.2" cy="133.57" r="30.24"/><circle class="cls-1" cx="565.08" cy="150.41" r="30.24"/><circle class="cls-1" cx="676.63" cy="221.71" r="30.24"/><circle class="cls-1" cx="654.51" cy="382.9" r="30.24"/><circle class="cls-1" cx="617.32" cy="507.17" r="30.24"/><circle class="cls-1" cx="203.72" cy="150.41" r="30.24"/><circle class="cls-1" cx="121.47" cy="378.5" r="30.24"/><circle class="cls-1" cx="141.21" cy="506.28" r="30.24"/><circle class="cls-1" cx="258.24" cy="579.39" r="30.24"/><circle class="cls-1" cx="103.21" cy="218.35" r="30.24"/></svg>